<?xml version="1.0" standalone="no"?><!DOCTYPE svg PUBLIC "-//W3C//DTD SVG 1.1//EN" "http://www.w3.org/Graphics/SVG/1.1/DTD/svg11.dtd"><svg t="1710910387125" class="icon" viewBox="0 0 1024 1024" version="1.1" xmlns="http://www.w3.org/2000/svg" p-id="28893" xmlns:xlink="http://www.w3.org/1999/xlink" width="16" height="16"><path d="M885.333333 0H138.666667A138.666667 138.666667 0 0 0 0 138.666667v746.666666a138.666667 138.666667 0 0 0 138.666667 138.666667h746.666666a138.666667 138.666667 0 0 0 138.666667-138.666667V138.666667A138.666667 138.666667 0 0 0 885.333333 0z m-64 357.653333L763.413333 426.666667a14.72 14.72 0 0 1-10.666666 5.12H557.12v65.066666H668.8a14.506667 14.506667 0 0 1 9.706667 3.84l53.333333 48.746667 0.96 0.96a14.4 14.4 0 0 1-0.96 20.373333l-53.333333 48.853334a14.186667 14.186667 0 0 1-9.706667 3.733333H557.226667v110.186667H650.666667a14.4 14.4 0 0 1 14.506666 14.4v60.693333A14.506667 14.506667 0 0 1 650.666667 823.146667H373.333333a14.506667 14.506667 0 0 1-14.4-14.506667v-60.693333A14.4 14.4 0 0 1 373.333333 733.546667h94.72V524.053333H273.066667a14.08 14.08 0 0 1-11.306667-5.546666l-59.306667-74.666667a14.4 14.4 0 0 1 0-17.92l59.306667-75.2a14.293333 14.293333 0 0 1 11.306667-5.44h194.453333V215.36a14.506667 14.506667 0 0 1 14.506667-14.506667h60.693333a14.506667 14.506667 0 0 1 14.506667 14.506667v49.813333h195.093333a14.506667 14.506667 0 0 1 10.666667 5.226667L821.333333 338.986667a14.4 14.4 0 0 1 0 18.666666z" fill="#00C3D9" p-id="28894"></path></svg>