<?xml version="1.0" standalone="no"?><!DOCTYPE svg PUBLIC "-//W3C//DTD SVG 1.1//EN" "http://www.w3.org/Graphics/SVG/1.1/DTD/svg11.dtd"><svg t="1710910833087" class="icon" viewBox="0 0 2048 1024" version="1.1" xmlns="http://www.w3.org/2000/svg" p-id="64365" xmlns:xlink="http://www.w3.org/1999/xlink" width="32" height="16"><path d="M1489.03711283 508.47966733V268.93455052h25.56303248V246.07946619h-25.56303248V184.98815001h25.56303248v-22.63844899h-25.56303248V107.91993793H572.34241633v54.42976309h-25.45471561v22.63844899h25.45471561v61.14547461h-25.45471561v22.74676666h25.45471561v239.59927605H215.48897431v143.35878841h26.32125856v235.97062491H1819.62345473v-235.97062491h17.33086957V508.47966733h-347.86305303z m65.53235105 27.89186837v96.13216837H1437.26113866V536.37153571h117.25416679zM599.47605941 166.84489511h853.27454442v14.62292143H599.53021786v-14.62292143z m0 81.88835999h853.27454442v14.67708066H599.53021786V248.78741433zM497.60304015 536.31737648h117.30832522v96.18632759H497.65719859V536.37153571z m130.73974908 326.95769156h-122.39926851v-171.25065759h122.39926851v171.25065758z m231.96286073-1e-8H737.63558688v-171.25065758h122.72422231v171.25065759z m231.4754308 0h-122.3992685v-171.25065758h122.3992685v171.25065759z m-141.67986094-230.71720471V536.37153571h117.36248366v96.13216836h-117.36248366z m167.35121188-145.14603517H943.87293822V301.97152141h173.57949348v185.33198907z m206.12903287 375.86323988h-122.61590383v-171.25065758h122.61590383v171.25065759z m231.80038383 1e-8h-122.61590385v-171.25065759h122.61590385v171.25065758z" fill="#1296db" p-id="64366"></path></svg>