<?xml version="1.0" standalone="no"?><!DOCTYPE svg PUBLIC "-//W3C//DTD SVG 1.1//EN" "http://www.w3.org/Graphics/SVG/1.1/DTD/svg11.dtd"><svg t="1710910725435" class="icon" viewBox="0 0 1024 1024" version="1.1" xmlns="http://www.w3.org/2000/svg" p-id="56519" xmlns:xlink="http://www.w3.org/1999/xlink" width="16" height="16"><path d="M873.411765 1024H150.588235a150.588235 150.588235 0 0 1-150.588235-150.588235V150.588235a150.588235 150.588235 0 0 1 150.588235-150.588235h722.82353a150.588235 150.588235 0 0 1 150.588235 150.588235v722.82353a150.588235 150.588235 0 0 1-150.588235 150.588235zM150.588235 60.235294a90.352941 90.352941 0 0 0-90.352941 90.352941v722.82353a90.352941 90.352941 0 0 0 90.352941 90.352941h722.82353a90.352941 90.352941 0 0 0 90.352941-90.352941V150.588235a90.352941 90.352941 0 0 0-90.352941-90.352941z" fill="#2FC0F7" p-id="56520"></path><path d="M271.058824 319.247059m-48.188236 0a48.188235 48.188235 0 1 0 96.376471 0 48.188235 48.188235 0 1 0-96.376471 0Z" fill="#2FC0F7" p-id="56521"></path><path d="M271.058824 512m-48.188236 0a48.188235 48.188235 0 1 0 96.376471 0 48.188235 48.188235 0 1 0-96.376471 0Z" fill="#2FC0F7" p-id="56522"></path><path d="M271.058824 704.752941m-48.188236 0a48.188235 48.188235 0 1 0 96.376471 0 48.188235 48.188235 0 1 0-96.376471 0Z" fill="#2FC0F7" p-id="56523"></path><path d="M415.623529 289.129412h385.505883v60.235294H415.623529zM415.623529 481.882353h385.505883v60.235294H415.623529zM415.623529 674.635294h385.505883v60.235294H415.623529z" fill="#2FC0F7" p-id="56524"></path></svg>