<?xml version="1.0" standalone="no"?>
<!DOCTYPE svg PUBLIC "-//W3C//DTD SVG 1.1//EN" "http://www.w3.org/Graphics/SVG/1.1/DTD/svg11.dtd"><svg t="1710938261665"
    class="icon" viewBox="0 0 1024 1024" version="1.1" xmlns="http://www.w3.org/2000/svg" p-id="97575"
    xmlns:xlink="http://www.w3.org/1999/xlink" width="16" height="16">
    <path
        d="M504.365363 1024c-277.78822 0-503.788385-226.000165-503.788385-503.788385S226.577143 16.42323 504.365363 16.42323 1008.153748 242.423396 1008.153748 520.211615 782.153582 1024 504.365363 1024zM504.365363 47.910319c-260.426519 0-472.301296 211.874777-472.301296 472.301296s211.874777 472.301296 472.301296 472.301296S976.666659 780.638134 976.666659 520.211615 764.791882 47.910319 504.365363 47.910319z"
        fill="#00b3ff" p-id="97576"></path>
    <path
        d="M625.135013 850.823026c-1.237532 0-2.487148-0.146007-3.720652-0.446075-5.392177-1.311039-9.697862-5.365996-11.327095-10.673589l-78.970464-257.001908-92.692068 78.551576 1.141873 139.487702c0.034236 4.173776-1.586941 8.186442-4.512109 11.161956L411.496073 835.882015c-3.74784 3.816312-9.174252 5.461656-14.417401 4.385234-5.235094-1.080449-9.56696-4.746726-11.496261-9.736126L334.831506 699.34264l-136.236285-58.522485c-4.761831-2.0451-8.213629-6.307487-9.224599-11.396574-1.01097-5.085059 0.545763-10.343312 4.166728-14.055909l23.464779-24.068944c3.155757-3.232285 7.549047-4.907837 12.042024-4.73565l142.736098 6.991201 78.816402-96.700706-258.892946-82.214833c-5.207906-1.65642-9.190363-5.892627-10.508451-11.20022-1.322115-5.304573 0.199375-10.912235 4.024749-14.821185l44.835117-45.792719c3.348083-3.416556 8.040435-5.146483 12.826432-4.647039l321.306256 32.352052 90.705371-92.446374c36.771522-37.206522 72.106138-44.570291 89.897803-44.570291 0.09566 0 0.192326 0 0.287986 0 16.938785 0 31.390422 6.400126 39.677558 14.682227 19.475273 19.483328 18.802635 75.499534-33.108266 128.453628l-91.657939 91.911688 25.698177 319.257128c0.36552 4.547352-1.256664 9.12894-4.446658 12.384385l-44.858277 45.841053C633.382878 849.102161 629.312817 850.823026 625.135013 850.823026zM539.153209 539.510673c1.480205 0 2.967459 0.20743 4.423498 0.634374 5.077004 1.487254 9.070537 5.42742 10.623242 10.485291l78.209216 254.526843 21.312943-21.759018-25.706232-319.153413c-0.368541-4.604748 1.298956-9.144044 4.570512-12.407544l96.693657-96.520463c40.93825-41.760922 37.67475-77.832619 33.135453-83.271115-5.930891-5.288461-44.081924-11.718796-85.159132 29.860877-0.019132 0.02316-0.042292 0.046319-0.061423 0.065451l-96.012964 96.097548c-3.344056 3.344056-7.998143 4.9894-12.714662 4.535269l-321.20959-32.339969-21.64322 22.104399 256.575971 81.480772c4.96624 1.579893 8.832899 5.512003 10.320153 10.508451 1.491282 4.99242 0.410832 10.404736-2.882876 14.444589l-98.468897 120.811942c-3.159785 3.874714-7.875296 5.988286-12.972439 5.776829l-143.593006-7.033493-2.513328 2.578779 121.262045 52.088123c3.889818 1.668504 6.941861 4.835337 8.467379 8.782552l44.331646 114.597093 1.882982-1.918225-1.148921-140.348638c-0.038264-4.674227 2.002808-9.120884 5.565371-12.141711l116.53445-98.753862C531.85489 540.801573 535.474848 539.510673 539.153209 539.510673z"
        fill="#00b3ff" p-id="97577"></path>
</svg>