<?xml version="1.0" standalone="no"?><!DOCTYPE svg PUBLIC "-//W3C//DTD SVG 1.1//EN" "http://www.w3.org/Graphics/SVG/1.1/DTD/svg11.dtd"><svg t="1712549320750" class="icon" viewBox="0 0 1097 1024" version="1.1" xmlns="http://www.w3.org/2000/svg" p-id="14660" xmlns:xlink="http://www.w3.org/1999/xlink" width="17.140625" height="16"><path d="M477.988571 53.540571H281.453714l141.385143 336.018286H252.123429l-74.093715-62.171428H50.029714l62.902857 174.153142-62.902857 174.226286h128l74.020572-62.171428h170.788571l-141.385143 335.945142h196.534857l282.624-336.018285h181.467429c61.366857 0 111.104-50.102857 111.104-111.908572l-0.146286-5.339428a111.469714 111.469714 0 0 0-110.957714-106.788572H760.685714L477.988571 53.613714z m-84.699428 74.605715h50.395428l282.697143 336.091428h215.771429c20.406857 0 37.010286 16.676571 37.010286 37.302857 0 20.626286-16.603429 37.302857-37.083429 37.302858H726.381714l-282.697143 336.018285h-50.395428L534.674286 538.916571H225.28l-67.510857 56.685715 33.938286-94.061715-33.938286-94.061714 67.510857 56.758857h309.394286L393.289143 128.219429z" fill="#1296db" p-id="14661"></path></svg>