<?xml version="1.0" standalone="no"?>
<!DOCTYPE svg PUBLIC "-//W3C//DTD SVG 1.1//EN" "http://www.w3.org/Graphics/SVG/1.1/DTD/svg11.dtd"><svg t="1710854130245"
    class="icon" viewBox="0 0 1024 1024" version="1.1" xmlns="http://www.w3.org/2000/svg" p-id="12569"
    xmlns:xlink="http://www.w3.org/1999/xlink" width="16" height="16">
    <path
        d="M602.2776242 611.56429462L433.37909281 598.13534248l-149.64817074 285.90157078 85.53126337-0.00062148zM609.8199124 423.47692918L440.75979606 433.88299982 296.17109863 145.40414912l85.56420183 1.49528225z"
        fill="#FFFFFF" p-id="12570"></path>
    <path
        d="M264.63779602 903.12879635a26.87871094 26.87871094 0 0 1-4.80466629-31.59669362l133.10187208-254.20854768-104.43173045-21.82826203-107.99716446 109.39673871c-5.09116883 5.15455984-11.99519647 8.05003783-19.21866513 8.0183423l-66.69480879 0a26.89628906 26.89628906 0 0 1-22.52804915-12.15553845 26.89628906 26.89628906 0 0 1-2.22738637-25.51923514l67.68047697-157.28554547-68.09438302-174.6907303a27 27 0 0 1 2.89609945-25.04193805 26.93144531 26.93144531 0 0 1 22.27386361-11.77332791l66.69356582 1e-8a26.83828125 26.83828125 0 0 1 20.14218525 9.00525345l110.22392935 123.39683149 103.98737183-23.41863083L271.76493519 158.29054873c-4.04086666-8.36885735-3.46848307-18.23361842 1.46420822-26.09224023s13.58680821-12.63221406 22.8785642-12.63283553L378.58501546 119.56609445a27.08085937 27.08085937 0 0 1 20.87366789 9.86476108l216.43868753 263.72217222L790.65087072 393.15364923c36.91097398 0 73.34465088 12.37740701 102.61887162 34.90607768l52.88426757 40.66595956c15.59170453 11.96474393 24.40554196 30.13310689 24.11903942 49.82969057-0.25418556 19.6642667-9.51362456 37.57968707-25.42352714 49.16159897l-53.07568358 38.62998923c-28.98833968 21.09553644-63.25739976 32.26416377-99.11869305 32.23246825L614.6879697 638.5471165l-224.90200994 263.02238511c-5.12286433 6.01406747-12.63283553 9.45085502-20.5243958 9.45085501l-85.59527587 0a26.95078125 26.95078125 0 0 1-19.02849207-7.89156027zM452.47035443 579.04408087a26.90068359 26.90068359 0 0 1 4.83698327 31.62901062l-128.99761438 246.34930438 28.51042112-0.00062148 224.90200994-263.0223851c5.12348581-6.01344598 12.63221405-9.45023353 20.52439579-9.44961206l190.47260789-0.00124296c24.37446793 0 47.63462121-7.60381477 67.33120488-21.89103158l53.07568359-38.62998923c2.76807445-2.00489632 3.18198052-4.77297078 3.21367602-6.20424053 0-1.46420823-0.35051504-4.23228268-3.05519847-6.30057l-52.88426757-40.66595958c-19.85568271-15.272885-44.64343522-23.70575483-69.71706881-23.70513336L603.13651035 447.15036703a26.93232422 26.93232422 0 0 1-20.87428936-9.86413961l-216.43744458-263.72217222-26.79264883-0.00062148L458.93002347 422.64973854c3.59588658 7.4142632 3.56294811 16.10069711-0.03169551 23.51496031-3.59588658 7.4142632-10.37375366 12.79131307-18.39209597 14.57371935l-2.57790139 0.54068809-149.99744284 33.79300596a26.74775391 26.74775391 0 0 1-26.06116619-8.36885735L149.13190332 360.47433645l-15.08209046 0 57.75294634 148.18458401a26.89804687 26.89804687 0 0 1-0.38221054 20.49207881l-55.90714906 129.72909702 14.38230333 0 110.38302838-111.84599364a27.02285156 27.02285156 0 0 1 24.75605701-7.44658018l153.7847454 32.16969871c5.28196336 1.08199767 9.99154312 3.62758208 13.65082071 7.28685969z"
        fill="#1296DB" p-id="12571"></path>
</svg>