<?xml version="1.0" standalone="no"?><!DOCTYPE svg PUBLIC "-//W3C//DTD SVG 1.1//EN" "http://www.w3.org/Graphics/SVG/1.1/DTD/svg11.dtd"><svg t="1710910697148" class="icon" viewBox="0 0 1024 1024" version="1.1" xmlns="http://www.w3.org/2000/svg" p-id="54609" xmlns:xlink="http://www.w3.org/1999/xlink" width="16" height="16"><path d="M870 730h-68V485.571c0-159.274-86.37-291.349-238.721-315.891 5.532-10.53 8.721-22.897 8.721-36.128C572 95.14 545.137 64 512 64s-60 31.14-60 69.553c0 13.231 3.188 25.598 8.721 36.128C308.37 194.223 222 326.298 222 485.571V730h-68c-33.137 0-60 26.863-60 60s26.863 60 60 60h716c33.137 0 60-26.863 60-60s-26.863-60-60-60zM592 880c0 44.183-35.817 80-80 80s-80-35.817-80-80" fill="#29ABE2" p-id="54610"></path></svg>